<?xml version="1.0" encoding="utf-8"?>
<!-- Generator: Adobe Illustrator 16.0.0, SVG Export Plug-In . SVG Version: 6.00 Build 0)  -->
<!DOCTYPE svg PUBLIC "-//W3C//DTD SVG 1.1//EN" "http://www.w3.org/Graphics/SVG/1.1/DTD/svg11.dtd">
<svg version="1.1" id="Calque_1" xmlns="http://www.w3.org/2000/svg" xmlns:xlink="http://www.w3.org/1999/xlink" x="0px" y="0px"
	 width="240.94px" height="153.07px" viewBox="0 0 240.94 153.07" enable-background="new 0 0 240.94 153.07" xml:space="preserve">
<g>
	<g>
		<path d="M175.793,30.944c-17.877-13.541-20.316-22.877-56.137-25.887c-35.819-3.01-57.546,25.303-61.92,34.345
			c-3.157,6.525-11.344,17.702-10.973,27.291c0,0,0.803,34.114,14.951,45.221c12.951,10.168,23.328,32.103,48.31,31.199
			c24.985-0.901,45.924-4.351,65.821-24.046c8.514-8.428,8.875-17.155,11.115-29.697C190.873,67.468,187.945,40.149,175.793,30.944z
			 M119.391,137.498c-35.325,0-63.962-28.635-63.962-63.963c0-35.325,28.637-63.963,63.962-63.963
			c35.326,0,63.965,28.638,63.965,63.963C183.355,108.863,154.717,137.498,119.391,137.498z"/>
		<path d="M127.269,95.362c0,0.068-0.306,1.854,0.356,2.104c0.023,0.031,1.084,0.293,1.595-1.398c0.021,0,0.086-0.835,0.086-1.659
			C129.306,94.409,127.269,94.54,127.269,95.362z"/>
		<path d="M104.957,91.656c-0.119-0.01-0.227-0.021-0.336-0.021c-0.119,0-0.226,0.012-0.324,0.021
			c-0.499,0.292-0.878,1.226-0.966,2.407h2.581C105.835,92.871,105.456,91.948,104.957,91.656z"/>
		<path d="M144.867,91.569c-0.881,0-1.291,1.8-1.291,3.026c0,1.266,0.422,3.013,1.291,3.013c0.877,0,1.287-1.855,1.287-3.013
			C146.154,93.391,145.723,91.569,144.867,91.569z"/>
		<path d="M119.391,13.034c-33.33,0-60.35,27.02-60.35,60.352c0,33.33,27.021,60.351,60.35,60.351
			c33.332,0,60.352-27.021,60.352-60.351C179.742,40.054,152.723,13.034,119.391,13.034z M151.076,89.164
			c0.355,0,0.703,0.347,0.703,0.704c0,0.369-0.348,0.715-0.703,0.715c-0.369,0-0.717-0.346-0.717-0.715
			C150.359,89.511,150.707,89.164,151.076,89.164z M99.823,97.651h-7.23v-0.153h0.662v-8.183h-0.662v-0.151h2.743v0.151h-0.684
			v8.183h4.044c0.911-0.401,1.073-1.896,1.073-1.896h0.055V97.651z M104.296,97.531l0.324,0.021c1.106,0,2.071-0.629,2.559-1.561
			h0.141c-0.509,0.997-1.529,1.68-2.7,1.68c-1.68,0-3.034-1.376-3.034-3.076c0-1.704,1.354-3.079,3.034-3.079
			c1.529,0,2.797,1.158,2.981,2.665h-4.281C103.299,96.046,103.689,97.174,104.296,97.531z M123.911,89.315h-0.521v8.183h0.521
			v0.153h-2.516v-0.153h0.618v-8.075l-2.005,7.74h-1.312l-2.504-7.836v8.171h1.225v0.153h-2.384v-0.153h1.041v-8.192h-1.041v-0.142
			h2.492l2.375,7.933l2.06-7.933h1.95V89.315z M125.43,43.765h-2.393V82.52h2.393v0.719h-11.563V82.52h2.84V44.278l-9.221,36.649
			h-6.031L89.941,43.817V82.52h5.633v0.719H84.608V82.52h4.785V43.714h-4.785v-0.667h11.464l10.915,37.574l9.47-37.574h8.972V43.765
			z M130.662,97.736c-1.291,0-1.334-0.541-1.334-1.582c-0.229,1.562-2.3,2.006-3.371,1.148c-0.586-0.466-0.51-1.853-0.163-2.146
			c0.878-0.932,3.534-0.865,3.534-0.865v-0.066c0-0.456,0.01-0.856,0.01-1.203c-0.021-0.954-0.184-1.485-1.475-1.485
			c-0.509,0-1.289,0.228-1.289,0.543c0,0.118,0.119,0.271,0.389,0.454c0.176,0.131,0.295,0.326,0.295,0.531
			c0,0.336-0.336,0.671-0.672,0.671c-0.424,0-0.727-0.432-0.727-0.909c0-1.344,1.604-1.398,2.168-1.398
			c2.211,0,2.829,1.063,2.829,2.17c0,0.637-0.032,1.31-0.032,2.328c0,0.335-0.109,1.487,0.281,1.487
			c0.738,0,0.607-0.869,0.617-0.869h0.121C131.844,97.38,131.398,97.736,130.662,97.736z M131.448,83.15
			c-1.151,0-2.081-0.933-2.081-2.083c0-1.148,0.93-2.079,2.081-2.079c1.149,0,2.079,0.931,2.079,2.079
			C133.527,82.218,132.598,83.15,131.448,83.15z M140.078,97.651h-2.754v-0.153h0.76v-4.91c0,0-0.021-0.889-0.652-0.941
			c-0.93,0.021-1.765,0.715-2.014,1.658v4.193h0.606v0.153h-2.722v-0.153h0.727v-5.842h-0.727v-0.152h2.115v1.44
			c0.346-0.832,1.17-1.407,2.058-1.407c1.075,0,1.995,0.813,1.995,1.896v4.064h0.607V97.651z M144.867,97.672
			c-1.68,0-3.023-1.396-3.023-3.076c0-1.725,1.363-3.092,3.023-3.092c1.723,0,3.023,1.432,3.023,3.092
			C147.891,96.296,146.566,97.672,144.867,97.672z M152.439,91.656h-0.682v5.842h0.682v0.153h-2.785v-0.153h0.717v-5.842h-0.717
			v-0.152h2.785V91.656z M158.648,93.423c-0.332,0-0.682-0.347-0.682-0.684c0-0.594,0.629-0.444,0.629-0.888
			c0,0-0.031-0.195-0.227-0.25c0,0-0.531-0.151-1.107,0.282c-0.021,0.033-0.508,0.401-0.715,1.149l-0.109,0.357v4.107h0.643v0.153
			h-2.766v-0.153h0.738v-5.842h-0.738v-0.152h2.123v1.486c0.336-0.987,1.043-1.725,2.191-1.442c0,0,0.705,0.131,0.705,1.191
			C159.334,93.076,158.986,93.423,158.648,93.423z"/>
	</g>
	<rect x="110.55" y="86.487" width="7.977" height="2.332"/>
	<rect x="120.182" y="86.034" width="6.849" height="2.785"/>
	<rect x="119.391" y="97.651" width="0.792" height="2.154"/>
</g>
</svg>
